<svg width="79" height="79" viewBox="0 0 79 79" fill="none" xmlns="http://www.w3.org/2000/svg">
<path d="M63.5686 24.3541C60.508 19.3872 55.9968 15.4792 50.6443 13.158C45.2917 10.8368 39.3558 10.2141 33.6381 11.3742C27.9205 12.5343 22.6965 15.4212 18.672 19.6449C14.6474 23.8687 12.016 29.2258 11.1332 34.9928C10.2505 40.7598 11.1589 46.6588 13.7357 51.8931C16.3125 57.1273 20.4337 61.4446 25.5426 64.2619C30.6514 67.0792 36.5018 68.2608 42.3036 67.6469C48.1054 67.0331 53.579 64.6535 57.9852 60.8296L49.3394 50.8673C46.9725 52.9214 44.0323 54.1996 40.9158 54.5293C37.7993 54.859 34.6566 54.2244 31.9124 52.711C29.1681 51.1977 26.9543 48.8785 25.5701 46.0669C24.186 43.2552 23.698 40.0865 24.1722 36.9887C24.6464 33.8909 26.0599 31.0132 28.2217 28.7444C30.3836 26.4755 33.1897 24.9248 36.261 24.3016C39.3323 23.6785 42.5209 24.0129 45.3961 25.2598C48.2713 26.5067 50.6945 28.6059 52.3386 31.274L63.5686 24.3541Z" fill="#D53232"/>
<circle cx="39.5" cy="39.5" r="9.5" fill="#002256"/>
</svg>
