<svg width="172" height="86" viewBox="0 0 172 86" fill="none" xmlns="http://www.w3.org/2000/svg">
<path d="M76.8239 37.8182V43.2727H61.0568V37.8182H76.8239ZM64.6364 31.5455H71.8977V55.9545C71.8977 56.625 72 57.1477 72.2045 57.5227C72.4091 57.8864 72.6932 58.142 73.0568 58.2898C73.4318 58.4375 73.8636 58.5114 74.3523 58.5114C74.6932 58.5114 75.0341 58.483 75.375 58.4261C75.7159 58.358 75.9773 58.3068 76.1591 58.2727L77.3011 63.6761C76.9375 63.7898 76.4261 63.9205 75.767 64.0682C75.108 64.2273 74.3068 64.3239 73.3636 64.358C71.6136 64.4261 70.0795 64.1932 68.7614 63.6591C67.4545 63.125 66.4375 62.2955 65.7102 61.1705C64.983 60.0455 64.625 58.625 64.6364 56.9091V31.5455ZM91.1823 64.5114C88.5345 64.5114 86.2448 63.9489 84.313 62.8239C82.3925 61.6875 80.9095 60.108 79.8641 58.0852C78.8186 56.0511 78.2959 53.6932 78.2959 51.0114C78.2959 48.3068 78.8186 45.9432 79.8641 43.9205C80.9095 41.8864 82.3925 40.3068 84.313 39.1818C86.2448 38.0455 88.5345 37.4773 91.1823 37.4773C93.83 37.4773 96.1141 38.0455 98.0345 39.1818C99.9664 40.3068 101.455 41.8864 102.5 43.9205C103.546 45.9432 104.069 48.3068 104.069 51.0114C104.069 53.6932 103.546 56.0511 102.5 58.0852C101.455 60.108 99.9664 61.6875 98.0345 62.8239C96.1141 63.9489 93.83 64.5114 91.1823 64.5114ZM91.2164 58.8864C92.4209 58.8864 93.4266 58.5455 94.2334 57.8636C95.0402 57.1705 95.6482 56.2273 96.0573 55.0341C96.4777 53.8409 96.688 52.483 96.688 50.9602C96.688 49.4375 96.4777 48.0795 96.0573 46.8864C95.6482 45.6932 95.0402 44.75 94.2334 44.0568C93.4266 43.3636 92.4209 43.017 91.2164 43.017C90.0005 43.017 88.9777 43.3636 88.1482 44.0568C87.33 44.75 86.7107 45.6932 86.2902 46.8864C85.8811 48.0795 85.6766 49.4375 85.6766 50.9602C85.6766 52.483 85.8811 53.8409 86.2902 55.0341C86.7107 56.2273 87.33 57.1705 88.1482 57.8636C88.9777 58.5455 90.0005 58.8864 91.2164 58.8864ZM106.87 73.8182V37.8182H114.029V42.2159H114.353C114.671 41.5114 115.132 40.7955 115.734 40.0682C116.348 39.3295 117.143 38.7159 118.12 38.2273C119.109 37.7273 120.336 37.4773 121.802 37.4773C123.711 37.4773 125.473 37.9773 127.086 38.9773C128.7 39.9659 129.99 41.4602 130.955 43.4602C131.921 45.4489 132.404 47.9432 132.404 50.9432C132.404 53.8636 131.933 56.3295 130.99 58.3409C130.058 60.3409 128.785 61.858 127.171 62.892C125.569 63.9148 123.774 64.4261 121.785 64.4261C120.376 64.4261 119.177 64.1932 118.188 63.7273C117.211 63.2614 116.41 62.6761 115.785 61.9716C115.16 61.2557 114.683 60.5341 114.353 59.8068H114.132V73.8182H106.87ZM113.978 50.9091C113.978 52.4659 114.194 53.8239 114.626 54.983C115.058 56.142 115.683 57.0455 116.501 57.6932C117.319 58.3295 118.313 58.6477 119.484 58.6477C120.666 58.6477 121.666 58.3239 122.484 57.6761C123.302 57.017 123.921 56.108 124.342 54.9489C124.774 53.7784 124.99 52.4318 124.99 50.9091C124.99 49.3977 124.779 48.0682 124.359 46.9205C123.938 45.7727 123.319 44.875 122.501 44.2273C121.683 43.5795 120.677 43.2557 119.484 43.2557C118.302 43.2557 117.302 43.5682 116.484 44.1932C115.677 44.8182 115.058 45.7045 114.626 46.8523C114.194 48 113.978 49.3523 113.978 50.9091ZM135.325 64V37.8182H142.587V64H135.325ZM138.973 34.4432C137.893 34.4432 136.967 34.0852 136.195 33.3693C135.433 32.642 135.052 31.7727 135.052 30.7614C135.052 29.7614 135.433 28.9034 136.195 28.1875C136.967 27.4602 137.893 27.0966 138.973 27.0966C140.052 27.0966 140.973 27.4602 141.734 28.1875C142.507 28.9034 142.893 29.7614 142.893 30.7614C142.893 31.7727 142.507 32.642 141.734 33.3693C140.973 34.0852 140.052 34.4432 138.973 34.4432ZM153.949 64.4943C152.279 64.4943 150.79 64.2045 149.483 63.625C148.177 63.0341 147.142 62.1648 146.381 61.017C145.631 59.858 145.256 58.4148 145.256 56.6875C145.256 55.233 145.523 54.0114 146.057 53.0227C146.591 52.0341 147.319 51.2386 148.239 50.6364C149.159 50.0341 150.205 49.5795 151.375 49.2727C152.557 48.9659 153.796 48.75 155.091 48.625C156.614 48.4659 157.841 48.3182 158.773 48.1818C159.705 48.0341 160.381 47.8182 160.802 47.5341C161.222 47.25 161.432 46.8295 161.432 46.2727V46.1705C161.432 45.0909 161.091 44.2557 160.409 43.6648C159.739 43.0739 158.784 42.7784 157.546 42.7784C156.239 42.7784 155.199 43.0682 154.427 43.6477C153.654 44.2159 153.142 44.9318 152.892 45.7955L146.177 45.25C146.517 43.6591 147.188 42.2841 148.188 41.125C149.188 39.9545 150.478 39.0568 152.057 38.4318C153.648 37.7955 155.489 37.4773 157.58 37.4773C159.034 37.4773 160.427 37.6477 161.756 37.9886C163.097 38.3295 164.284 38.858 165.319 39.5739C166.364 40.2898 167.188 41.2102 167.79 42.3352C168.392 43.4489 168.694 44.7841 168.694 46.3409V64H161.807V60.3693H161.603C161.182 61.1875 160.62 61.9091 159.915 62.5341C159.211 63.1477 158.364 63.6307 157.375 63.983C156.387 64.3239 155.245 64.4943 153.949 64.4943ZM156.029 59.483C157.097 59.483 158.04 59.2727 158.858 58.8523C159.677 58.4205 160.319 57.8409 160.784 57.1136C161.25 56.3864 161.483 55.5625 161.483 54.642V51.8636C161.256 52.0114 160.944 52.1477 160.546 52.2727C160.159 52.3864 159.722 52.4943 159.233 52.5966C158.745 52.6875 158.256 52.7727 157.767 52.8523C157.279 52.9205 156.836 52.983 156.438 53.0398C155.586 53.1648 154.841 53.3636 154.205 53.6364C153.569 53.9091 153.074 54.2784 152.722 54.7443C152.37 55.1989 152.194 55.767 152.194 56.4489C152.194 57.4375 152.552 58.1932 153.267 58.7159C153.995 59.2273 154.915 59.483 156.029 59.483Z" fill="#002256"/>
<path d="M63.5686 24.3541C60.508 19.3872 55.9968 15.4792 50.6443 13.158C45.2917 10.8368 39.3558 10.2141 33.6381 11.3742C27.9205 12.5343 22.6965 15.4212 18.672 19.6449C14.6474 23.8687 12.016 29.2258 11.1332 34.9928C10.2505 40.7598 11.1589 46.6588 13.7357 51.8931C16.3125 57.1273 20.4337 61.4446 25.5426 64.2619C30.6514 67.0792 36.5018 68.2608 42.3036 67.6469C48.1054 67.0331 53.579 64.6535 57.9852 60.8296L49.3394 50.8673C46.9725 52.9214 44.0323 54.1996 40.9158 54.5293C37.7993 54.859 34.6566 54.2244 31.9124 52.711C29.1681 51.1977 26.9543 48.8785 25.5701 46.0669C24.186 43.2552 23.698 40.0865 24.1722 36.9887C24.6464 33.8909 26.0599 31.0132 28.2217 28.7444C30.3836 26.4755 33.1897 24.9248 36.261 24.3016C39.3323 23.6785 42.5209 24.0129 45.3961 25.2598C48.2713 26.5067 50.6945 28.6059 52.3386 31.274L63.5686 24.3541Z" fill="#D53232"/>
<circle cx="39.5" cy="39.5" r="7.5" fill="#002256"/>
<rect x="45" y="37" width="32" height="7" fill="#002256"/>
</svg>
